<?xml version="1.0" encoding="utf-8"?>
<!-- Generator: Adobe Illustrator 16.2.0, SVG Export Plug-In . SVG Version: 6.00 Build 0)  -->
<!DOCTYPE svg PUBLIC "-//W3C//DTD SVG 1.1//EN" "http://www.w3.org/Graphics/SVG/1.1/DTD/svg11.dtd">
<svg version="1.1" id="レイヤー_1" xmlns="http://www.w3.org/2000/svg" xmlns:xlink="http://www.w3.org/1999/xlink" x="0px"
	 y="0px" width="291.734px" height="409.091px" viewBox="0 0 291.734 409.091" enable-background="new 0 0 291.734 409.091"
	 xml:space="preserve">
<polygon opacity="0.3" fill="#618B34" points="144.025,187.186 144.166,187.186 144.025,187.104 "/>
<g opacity="0.3">
	<g>
		<polygon fill="#E9E9E9" points="29.543,121.294 29.275,253.517 66.664,274.221 		"/>
		<polygon fill="#E9E9E9" points="29.543,121.294 64.236,168.571 68.941,97.933 		"/>
		<polygon fill="#E9E9E9" points="104.844,208.538 64.236,168.571 101.244,294.559 		"/>
		<polygon fill="#E9E9E9" points="104.844,208.538 143.59,319.646 143.59,54.793 		"/>
		<polygon fill="#E9E9E9" points="0.727,271.526 17.771,114.07 0,103.93 		"/>
		<polygon fill="#E9E9E9" points="146.344,39.969 17.771,114.07 0,103.93 		"/>
		<polygon fill="#E9E9E9" points="291.734,102.682 146.344,39.969 274.084,112.983 		"/>
		<polygon fill="#E9E9E9" points="291.734,102.682 290.988,270.254 274.084,112.983 		"/>
	</g>
</g>
<g opacity="0.3">
	<g>
		<polygon fill="#FAFAFA" points="29.543,121.294 64.236,168.571 66.762,231.791 66.664,274.221 		"/>
		<polygon fill="#FAFAFA" points="104.844,208.538 64.236,168.571 68.941,97.933 		"/>
		<polygon fill="#FAFAFA" points="104.844,208.538 143.59,319.646 101.244,294.559 		"/>
		<polygon fill="#FAFAFA" points="104.844,208.538 100.449,133.614 100.301,79.795 143.59,54.793 		"/>
		<polygon fill="#FAFAFA" points="0.727,271.526 18.393,261.202 17.771,114.07 		"/>
		<polygon fill="#FAFAFA" points="0,103.93 146.344,39.969 146.25,19.526 		"/>
		<polygon fill="#FAFAFA" points="291.734,102.682 146.344,39.969 146.25,19.526 		"/>
		<polygon fill="#FAFAFA" points="273.229,260.126 290.988,270.254 274.084,112.983 		"/>
	</g>
</g>
<g opacity="0.3">
	<g>
		<polygon fill="#EFEFEF" points="273.229,260.126 290.988,270.254 156.418,328.438 		"/>
		<polygon fill="#EFEFEF" points="146.186,351.84 146.15,396.12 156.418,328.438 		"/>
		<polygon fill="#EFEFEF" points="0.727,271.526 18.393,261.202 136.01,328.438 		"/>
		<polygon fill="#EFEFEF" points="146.15,396.12 146.186,351.84 136.01,328.438 		"/>
		<path fill="#EFEFEF" d="M174.363,70.107l-24.838-15.853c0,44.309,0,221.443,0,265.717L174.363,70.107z"/>
		<polygon fill="#EFEFEF" points="189.445,241.713 202.787,288.542 173.965,246.313 		"/>
		<polygon fill="#EFEFEF" points="189.445,241.713 200.469,83.985 206.637,214.01 		"/>
		<polygon fill="#EFEFEF" points="211.086,125.557 200.469,83.985 219.945,94.312 		"/>
		<polygon fill="#EFEFEF" points="211.086,125.557 230.068,272.915 213.213,212.68 		"/>
		<polygon fill="#EFEFEF" points="204.258,260.091 213.213,212.68 206.637,214.01 		"/>
		<polygon fill="#EFEFEF" points="232.371,103.28 242.426,108.002 246.352,139.438 244.717,232.212 241.998,264.975 		"/>
		<path fill="#EFEFEF" d="M250.443,165.12c-1.092,1.254-2.352,1.711-3.664,1.57l-0.92-0.094l3.527,16.588L250.443,165.12z"/>
		<path fill="#EFEFEF" d="M249.633,140.715l15.322,5.856c-1.012-7.172-3.051-14.432-6.039-20.769l-12.564,13.635l1.561,0.451
			C248.527,140.083,249.107,140.34,249.633,140.715z"/>
		<path fill="#EFEFEF" d="M250.793,164.674l10.672,10.939c3.748-6.281,4.902-16.107,3.814-26.373l-13.631,13.939
			C251.379,163.76,251.092,164.255,250.793,164.674z"/>
		<path fill="#EFEFEF" d="M245.275,200.305l14.889-11.502c-2.293-2.748-5.996-5.162-9.488-5.666l-1.289,0.047L245.275,200.305z"/>
		<path fill="#EFEFEF" d="M252.715,216.641l11.707,6.609c2.264-11.402,2.145-22.623-1.656-30.378l-9.635,19.969
			C253.045,214.092,252.92,215.387,252.715,216.641z"/>
		<path fill="#EFEFEF" d="M254.818,249.823c3.674-6.589,6.699-14.414,8.686-22.371l-18.787,4.761L254.818,249.823z"/>
	</g>
</g>
<g opacity="0.3">
	<g>
		<polygon fill="#FFFFFF" points="170.314,340.807 290.988,270.254 156.418,328.438 		"/>
		<polygon fill="#FFFFFF" points="170.314,340.807 146.15,396.12 156.418,328.438 		"/>
		<polygon fill="#FFFFFF" points="0.727,271.526 122.115,340.901 136.01,328.438 		"/>
		<polygon fill="#FFFFFF" points="146.15,396.12 122.115,340.901 136.01,328.438 		"/>
		<polygon fill="#FFFFFF" points="149.525,319.971 174.363,70.107 173.965,246.313 		"/>
		<polygon fill="#FFFFFF" points="149.525,319.971 202.787,288.542 173.965,246.313 		"/>
		<polygon fill="#FFFFFF" points="189.445,241.713 202.787,288.542 206.637,214.01 		"/>
		<polygon fill="#FFFFFF" points="211.086,125.557 200.469,83.985 206.637,214.01 		"/>
		<polygon fill="#FFFFFF" points="211.086,125.557 230.068,272.915 219.945,94.312 		"/>
		<polygon fill="#FFFFFF" points="215.584,280.93 230.068,272.915 213.213,212.68 		"/>
		<polygon fill="#FFFFFF" points="245.859,166.596 245.275,200.305 249.387,183.184 		"/>
		<path fill="#FFFFFF" d="M258.916,125.803c-3.973-8.394-9.564-15.144-16.49-17.801l3.926,31.436L258.916,125.803z"/>
		<path fill="#FFFFFF" d="M253.313,153.445c0.041-2.329,0.084-4.421,0,0.056c-0.094,5.332-0.053,2.59,0,0.041
			c-0.088,4.43-0.725,7.547-1.664,9.639l13.631-13.939c-0.102-0.891-0.207-1.787-0.324-2.669l-15.322-5.856
			C251.955,142.283,253.449,145.831,253.313,153.445z"/>
		<path fill="#FFFFFF" d="M250.676,183.137c5.059-0.053,8.262-3.234,10.789-7.523l-10.672-10.939
			c-0.117,0.17-0.227,0.311-0.35,0.445l-1.057,18.064L250.676,183.137z"/>
		<path fill="#FFFFFF" d="M253.131,212.841l9.635-19.969c-0.721-1.494-1.6-2.848-2.602-4.069l-14.889,11.502l1.213-0.173
			C251.955,199.461,253.576,205.705,253.131,212.841z"/>
		<path fill="#FFFFFF" d="M252.715,216.641c-1.111,7.187-3.906,14.186-6.703,15.135l-1.295,0.437l18.787-4.761
			c0.332-1.392,0.65-2.801,0.918-4.201L252.715,216.641z"/>
		<path fill="#FFFFFF" d="M254.818,249.823l-10.102-17.61l-2.719,32.763C246.621,262.034,251.051,256.584,254.818,249.823z"/>
		<polygon fill="#FFFFFF" points="232.371,103.28 230.068,272.915 241.998,264.975 		"/>
	</g>
</g>
</svg>
